<svg width="154" height="39" viewBox="0 0 154 39" fill="none" xmlns="http://www.w3.org/2000/svg">
<path d="M7.43359 30C7.0625 28.418 6.88672 26.2305 6.88672 23.4375L6.92578 15.1562H7.23828C7.80469 19.7852 11.9648 22.5781 16.6328 22.4805C19.3086 22.4805 21.6914 21.543 23.4102 19.8242C25.1289 18.125 26.1641 15.4492 26.1641 12.2461C26.1641 9.02344 24.8164 6.28906 22.5898 4.60938C20.3633 2.92969 17.3359 1.99219 13.957 1.99219H0.792969C1.20312 3.78906 1.39844 6.03516 1.39844 8.71094V23.2812C1.39844 25.957 1.20312 28.2031 0.792969 30H7.43359ZM14.5625 17.5195C12.8438 17.5195 11.0078 16.8359 9.52344 15.6445C8.01953 14.4727 6.94531 12.4805 6.92578 10.1953V7.32422C8.60547 7.10938 10.7148 6.99219 13.2734 6.99219C15.5391 6.99219 17.3164 7.48047 18.625 8.45703C19.9141 9.45312 20.5586 10.7422 20.5586 12.3242C20.5586 13.8281 19.9922 15.0781 18.8398 16.0547C17.6875 17.0312 16.2617 17.5195 14.5625 17.5195ZM36.3984 30.5273C40.3633 30.5273 43.0977 28.9258 44.1133 26.6016H44.4844V26.9531C44.4844 28.3008 44.3281 29.3164 43.9961 30H50.2461C50.0117 29.3359 49.8555 28.5352 49.7773 27.6172C49.6797 26.6992 49.6406 25.3516 49.6406 23.5938V17.0703C49.6406 14.2578 48.4688 12.1875 46.4375 11.0742C44.3867 9.96094 41.9453 9.47266 38.8789 9.47266C37.4531 9.47266 35.8906 9.60938 34.2109 9.90234C32.5312 10.1953 31.2812 10.5078 30.4414 10.8398V14.5508C31.0078 14.1211 32.0039 13.7109 33.4297 13.3203C34.8555 12.9492 36.3203 12.7539 37.8047 12.7539C42.043 12.7539 44.4844 14.5117 44.4844 18.0078V20.8008H44.0352C43.5469 19.6875 42.6289 18.75 41.3008 17.9883C39.9531 17.2266 38.332 16.8359 36.4375 16.8359C33.8203 16.8359 31.7695 17.4805 30.2852 18.75C28.7812 20.0195 28.0391 21.6602 28.0391 23.6719C28.0391 25.6836 28.7812 27.3242 30.2656 28.5938C31.75 29.8828 33.8008 30.5273 36.3984 30.5273ZM38.6836 27.168C36.9844 27.168 35.6367 26.8359 34.6602 26.1719C33.6836 25.5273 33.1953 24.668 33.1953 23.6328C33.1953 21.543 35.2656 20.1172 38.6836 20.1172C40.3633 20.1172 41.75 20.4688 42.8242 21.1914C43.8984 21.9141 44.4453 22.7344 44.4453 23.6328C44.4453 25.8398 42.2188 27.168 38.6836 27.168ZM58.3711 6.75781C60.2656 6.75781 61.5352 5.52734 61.5352 3.88672C61.5352 2.1875 60.2656 0.957031 58.3711 0.957031C57.4336 0.957031 56.6719 1.23047 56.0859 1.79688C55.5 2.36328 55.207 3.04688 55.207 3.88672C55.207 5.52734 56.4961 6.75781 58.3711 6.75781ZM61.6914 30C61.2812 28.3398 61.0859 26.1133 61.0859 23.2812V13.8477C61.0859 12.2266 61.1836 10.9375 61.3594 10C60.7539 10.4102 59.7773 10.625 58.4492 10.625C57.1211 10.625 56.1055 10.4102 55.4023 10C55.5977 10.8008 55.6953 12.0898 55.6953 13.8477V23.2812C55.6953 26.1133 55.5 28.3398 55.0898 30H61.6914ZM73.332 30C72.9609 28.9648 72.7656 27.4219 72.7656 25.3516V20.8008C72.7656 18.8672 73.4492 17.2266 74.8164 15.8398C76.1836 14.4531 77.7656 13.7695 79.543 13.7695C81.0273 13.7695 82.5898 14.2773 83.3711 14.9609V10C82.5117 9.64844 81.5156 9.47266 80.3828 9.47266C76.7695 9.47266 74.1328 11.9141 73.1367 16.1523H72.7656V14.3945C72.7656 13.6133 72.8438 12.8125 73 11.9727C73.1562 11.1328 73.3516 10.4883 73.6055 10H66.8086C67.1602 11.7969 67.3359 13.8281 67.3359 16.0742V24.4336C67.3359 26.3867 67.1602 28.2422 66.8086 30H73.332ZM110.441 30.5273C114.406 30.5273 117.531 29.4922 119.816 27.4219C122.102 25.3711 123.254 22.5 123.254 18.8086V8.71094C123.254 5.83984 123.43 3.61328 123.801 1.99219H117.16C117.531 3.67188 117.727 5.91797 117.727 8.71094V17.5195C117.727 19.8438 117.082 21.6992 115.773 23.0469C114.465 24.3945 112.688 25.0781 110.48 25.0781C108.273 25.0781 106.535 24.3945 105.246 23.0469C103.938 21.6992 103.293 19.8438 103.293 17.5195V8.71094C103.293 5.91797 103.469 3.69141 103.801 1.99219H97.1602C97.5703 3.61328 97.7656 5.83984 97.7656 8.71094V18.8086C97.7656 26.6016 103.156 30.5273 110.441 30.5273ZM135.91 38.0078C135.5 35.9961 135.305 33.75 135.305 31.2891V24.9609H135.754C136.359 26.6406 137.414 27.9883 138.879 29.0039C140.344 30.0195 142.102 30.5273 144.152 30.5273C150.09 30.5859 153.859 25.9375 153.762 20C153.762 16.9336 152.902 14.4141 151.164 12.4414C149.426 10.4688 147.102 9.47266 144.152 9.47266C142.102 9.47266 140.363 10 138.898 11.0547C137.434 12.1094 136.398 13.4375 135.754 15.0391H135.305V13.8477C135.305 12.6562 135.5 11.3867 135.871 10H129.348C129.719 11.6797 129.914 13.9258 129.914 16.7188V31.2891C129.914 34.082 129.719 36.3281 129.348 38.0078H135.91ZM141.906 26.3672C140.07 26.3672 138.527 25.7031 137.277 24.3945C136.027 23.0859 135.402 21.6211 135.402 20C135.402 18.1836 136.008 16.6797 137.238 15.4492C138.469 14.2383 140.012 13.6328 141.906 13.6328C143.879 13.6328 145.48 14.2188 146.75 15.4102C148 16.6016 148.625 18.1445 148.625 20C148.625 21.8555 148 23.3789 146.75 24.5703C145.48 25.7617 143.879 26.3672 141.906 26.3672Z" fill="black"/>
</svg>
